<?xml version="1.0" encoding="utf-8"?>
<!-- Generator: Adobe Illustrator 25.3.0, SVG Export Plug-In . SVG Version: 6.00 Build 0)  -->
<svg version="1.1" id="Calque_1" xmlns="http://www.w3.org/2000/svg" xmlns:xlink="http://www.w3.org/1999/xlink" x="0px" y="0px"
	 viewBox="0 0 500 500" style="enable-background:new 0 0 500 500;" xml:space="preserve">
<style type="text/css">
	.st0{fill:#00AE42;}
	.st1{fill:#FFFFFF;}
	.st2{fill:#FDFFFE;}
</style>
<path class="st0" d="M80,0h340c44.2,0,80,35.8,80,80v340c0,44.2-35.8,80-80,80H80c-44.2,0-80-35.8-80-80V80C0,35.8,35.8,0,80,0z"/>
<path class="st1" d="M190.2,54v110.4l58.3-24.7V54H190.2z M257.5,54v55.2l58.3,24.7V54H257.5z M257.5,119.7V230h58.3v-85.6
	L257.5,119.7z M248.5,150.1l-58.3,24.7V230h58.3V150.1z"/>
<path class="st2" d="M69,277.3l-14.4,5.5v13.7L69,291V277.3z M69.1,291.1v11.3h30.7c0.9,0,1.8,0.2,2.6,0.6c3,1.2,5,4.1,5,7.3
	c0,0,0,1.1-0.2,1.6c-0.4,2.5-2.1,4.5-4.4,5.4c-1,0.5-2.1,0.7-3.3,0.7H69.1v-15.6L54.6,308v49.3h52.2c0,0,0.9,0,1.3,0
	c9.2-0.6,16.5-8,17.1-17.3c0-0.5,0-3,0-3.5c-0.4-4.8-2.9-9.2-6.8-12.4c2.1-2.9,3.4-6.3,3.6-9.9c0-0.4,0.1-3.8,0-4.2
	c-0.8-10.5-11.3-18.8-24-18.8L69.1,291.1L69.1,291.1z M69,302.4L69,302.4L69,302.4L69,302.4L69,302.4z M314.5,293.7v63.5h47.8
	c7.8,0,14.1-6.3,14.1-14v-22.8c0-7.7-6.3-14-14.1-14H329v-12.7h-0.3L314.5,293.7z M139.4,306.4l4.1,10.9h46.3c0.8,0,1.4,0.6,1.4,1.4
	v6.4h-41.3c-7.8,0-14.1,6.3-14.1,14v3.9c0,7.7,6.3,14,14.1,14h54.5v-36.8c0-7.7-6.3-14-14.1-14L139.4,306.4z M217.2,306.4v50.8h14.1
	V319c0-0.8,0.6-1.4,1.4-1.4h19.1c0.8,0,1.4,0.6,1.4,1.4v38.3h14.1V319c0-0.8,0.6-1.4,1.4-1.4h18.8c0.8,0,1.4,0.6,1.4,1.4v38.3h14.2
	v-36.8c-0.1-7.7-6.4-14-14.2-14L217.2,306.4z M388.2,306.4v36.8c0,7.7,6.3,14,14.1,14h35.1c7.8,0,14.1-6.3,14.1-14v-36.8h-13.2v38.3
	h0c0,0.8-0.6,1.4-1.4,1.4h-33.9c-0.8,0-1.4-0.6-1.4-1.4v-38.3H388.2z M329,317.5h31.7c0.8,0,1.4,0.6,1.4,1.4v25.8
	c0,0.8-0.6,1.4-1.4,1.4H329L329,317.5z M69,329.3h32.8c4.7,0,8.5,3.7,8.5,8.4v0c0,4.7-3.8,8.5-8.4,8.5c0,0,0,0-0.1,0H69L69,329.3
	L69,329.3z M150.4,336.1h40.8v10h-40.8c-0.8,0-1.4-0.6-1.4-1.4v-7.2C149,336.8,149.6,336.1,150.4,336.1z M309,379.1v63.5h47.8
	c7.8,0,14.1-6.3,14.1-14v-22.7c0-7.7-6.3-14.1-14.1-14.1h-33.2V379h-0.3L309,379.1L309,379.1z M167.8,379.1v63.4h53l-4.5-12h-34
	v-51.4H167.8z M231.2,391.7l4.1,10.9h46.3c0.8,0,1.4,0.6,1.4,1.4v6.4h-41.3c-7.8,0-14.1,6.3-14.1,14v3.9c0,7.7,6.3,14,14.1,14h54.5
	v-36.8c0-7.7-6.3-14-14.1-14L231.2,391.7z M323.5,402.9h31.7c0.8,0,1.4,0.6,1.4,1.4v25.8c0,0.8-0.6,1.4-1.4,1.4h-31.7V402.9z
	 M242.3,421.5h40.8v10h-40.8c-0.8,0-1.4-0.6-1.4-1.4v-7.2C240.9,422.1,241.5,421.5,242.3,421.5L242.3,421.5z"/>
</svg>
