<?xml version="1.0" encoding="utf-8"?>
<!-- Generator: Adobe Illustrator 25.3.0, SVG Export Plug-In . SVG Version: 6.00 Build 0)  -->
<svg version="1.1" id="Calque_1" xmlns="http://www.w3.org/2000/svg" xmlns:xlink="http://www.w3.org/1999/xlink" x="0px" y="0px"
	 viewBox="0 0 1296 1296" style="enable-background:new 0 0 1296 1296;" xml:space="preserve">
<style type="text/css">
	.st0{fill:#00AE42;}
</style>
<path class="st0" d="M0,461.3v234.1l133.8-52.5V461.3L0,461.3z M154.6,461.3v117.1l133.8,52.5V461.3H154.6z M411.3,461.5l-33.4,12.8
	V506l33.4-12.8V461.5z M411.4,493.3v26.1h71.1c2.1,0,4.2,0.4,6,1.3c6.9,2.7,11.5,9.4,11.5,16.9c0,0-0.1,2.5-0.4,3.8
	c-0.9,5.7-4.8,10.5-10.1,12.6c-2.3,1.1-4.9,1.7-7.7,1.7h-70.4v-36.1l-33.5,12.8v114.1h120.8c0,0,2-0.1,2.9-0.1
	c21.2-1.4,38.1-18.6,39.5-40.1c0.1-1.1,0-7,0-8.1c-1-11.2-6.7-21.3-15.7-28.7c4.9-6.7,7.8-14.6,8.3-22.8c0-0.9,0.2-8.7,0.1-9.8
	c-1.9-24.4-26.1-43.6-55.5-43.6H411.4z M411.3,519.5l0.1,0v-0.1h-0.1V519.5z M979.2,499.4v146.9h110.5c18,0,32.6-14.5,32.6-32.4
	v-52.7c0.1-17.9-14.5-32.4-32.6-32.4h-76.9v-29.4h-0.6L979.2,499.4z M574.1,528.7l9.6,25.3h107.1c1.8,0,3.3,1.5,3.3,3.3v14.9h-95.6
	c-18,0-32.6,14.5-32.6,32.4v9.1c0,17.9,14.6,32.4,32.6,32.4h126v-85.2c0.1-17.9-14.6-32.3-32.6-32.3L574.1,528.7z M754.1,528.7
	v117.6h32.6v-88.5c0-1.8,1.5-3.3,3.3-3.3h44.1c1.8,0,3.3,1.5,3.3,3.3v88.5h32.7v-88.5c0-1.8,1.5-3.3,3.3-3.3h43.5
	c1.8,0,3.3,1.5,3.3,3.3v88.5H953v-85.1c-0.3-17.9-14.9-32.4-32.9-32.4L754.1,528.7z M1149.7,528.7v85.1c0,17.9,14.6,32.4,32.6,32.4
	h81.1c18,0,32.6-14.5,32.6-32.4v-85.1h-30.6v88.7h0.1c0,1.8-1.5,3.3-3.3,3.3h-78.4c-1.8,0-3.3-1.5-3.3-3.3v-88.7H1149.7z
	 M1012.8,554.5h73.4c1.8,0,3.3,1.5,3.3,3.3v59.7c0,1.8-1.5,3.3-3.3,3.3h-73.4L1012.8,554.5z M411.3,581.6h75.9
	c10.8-0.1,19.6,8.6,19.6,19.4c0,0,0,0.1,0,0.1c0,10.8-8.7,19.6-19.5,19.6c-0.1,0-0.1,0-0.2,0h-75.9V581.6z M599.6,597.5h94.3v23.2
	h-94.3c-1.8,0-3.3-1.5-3.3-3.3v-16.7C596.3,599,597.8,597.5,599.6,597.5z M154.6,600.7v234h133.8V653.1L154.6,600.7z M133.8,665.3
	L0,717.8v116.9h133.8V665.3z M704.6,687.8v146.9h110.5c18,0,32.6-14.5,32.6-32.4v-52.6c0.1-17.9-14.5-32.6-32.6-32.6h-76.9v-29.4
	h-0.6H704.6z M377.8,688v146.7h122.7L490,806.9h-78.7V688H377.8z M524.6,717.1l9.6,25.3h107.1c1.8,0,3.3,1.5,3.3,3.3v14.9H549
	c-18,0-32.6,14.5-32.6,32.4v9.1c0,17.9,14.6,32.4,32.6,32.4h126.1v-85.2c0-17.8-14.6-32.3-32.7-32.3L524.6,717.1z M738.1,743h73.4
	c1.8,0,3.3,1.5,3.3,3.3V806c0,1.8-1.5,3.3-3.3,3.3h-73.4L738.1,743z M550.2,785.9h94.3v23.2h-94.3c-1.8,0-3.3-1.5-3.3-3.3v-16.7
	C546.9,787.4,548.4,785.9,550.2,785.9L550.2,785.9z"/>
</svg>
