<?xml version="1.0" encoding="utf-8"?>
<!-- Generator: Adobe Illustrator 25.3.0, SVG Export Plug-In . SVG Version: 6.00 Build 0)  -->
<svg version="1.1" id="Calque_1" xmlns="http://www.w3.org/2000/svg" xmlns:xlink="http://www.w3.org/1999/xlink" x="0px" y="0px"
	 viewBox="0 0 500 500" style="enable-background:new 0 0 500 500;" xml:space="preserve">
<style type="text/css">
	.st0{fill:#FDFEFF;}
	.st1{fill:#006BFF;}
	.st2{fill-rule:evenodd;clip-rule:evenodd;fill:#006BFF;}
	.st3{fill:#0AE8F0;}
</style>
<path class="st0" d="M80.1,0.3h340c44.2,0,80,35.8,80,80v340c0,44.2-35.8,80-80,80h-340c-44.2,0-80-35.8-80-80v-340
	C0.1,36.1,35.9,0.3,80.1,0.3z"/>
<g>
	<g>
		<path class="st1" d="M230.2,302.4c7.7,0,14.9,4.7,16.4,14.8h-34.1C213.9,308.3,220.6,302.4,230.2,302.4 M245.5,332.2
			c-2.6,4.1-7.6,7.2-14.5,7.2c-9.5,0-16.8-5.2-18.5-14.4h42.8c0.2-1.3,0.3-2.7,0.3-4c0-14.3-10-27-25.4-27
			c-15.9,0-26.8,11.7-26.8,26.9c0,15.3,10.9,26.9,27.4,26.9c10.2,0,18-4.6,22.5-11.6L245.5,332.2z"/>
		<path class="st2" d="M190.3,271.9h8.9v74.6h-8.9V271.9z"/>
		<path class="st1" d="M305.1,315.1v31.4h-8.9v-30.9c0-8.4-4.8-13.1-12.7-13.1c-8.2,0-14.8,4.8-14.8,16.9v27.1h-8.9v-51.1h8.9v7.4
			c3.8-6,9.4-8.7,16.6-8.7C297.2,294,305.1,302,305.1,315.1"/>
		<path class="st1" d="M354.1,320.9c0-10.4-7.9-18.3-18.2-18.3c-10.2,0-18.1,7.9-18.1,18.3c0,10.4,7.9,18.3,18.1,18.3
			C346.2,339.2,354.1,331.3,354.1,320.9 M362.9,271.9v74.6h-8.9v-8.8c-4.1,6.2-10.6,10.1-19.3,10.1c-14.2,0-25.8-11.8-25.8-26.9
			s11.6-26.9,25.8-26.9c8.7,0,15.2,3.9,19.3,10.1v-32.3L362.9,271.9L362.9,271.9z"/>
		<path class="st2" d="M370.1,271.9h8.9v74.6h-8.9V271.9z"/>
		<g>
			<path class="st1" d="M174.5,320.9c0-10.4-7.9-18.3-18.2-18.3c-10.2,0-18.1,7.9-18.1,18.3c0,10.4,7.9,18.3,18.1,18.3
				C166.6,339.2,174.5,331.3,174.5,320.9 M183.4,295.4v51.1h-8.9v-8.8c-4.1,6.2-10.6,10.1-19.3,10.1c-14.2,0-25.9-11.8-25.9-26.9
				c0-15.1,11.6-26.9,25.9-26.9c8.7,0,15.2,3.9,19.3,10.1v-8.8L183.4,295.4z"/>
			<path class="st1" d="M116.1,336.6c-3.1,1.1-6.3,1.7-9.6,1.7c-15.2,0-27.7-12.5-27.7-27.7c0-15.2,12.5-27.7,27.7-27.7
				c6.4,0,12.6,2.2,17.6,6.3c1.6,1.3,3,2.7,4.2,4.3l7.7-5.6c-7-9.2-18-14.6-29.6-14.6c-20.4,0-37.2,16.8-37.2,37.2
				c0,20.4,16.8,37.2,37.2,37.2c8.2,0,16.3-2.7,22.8-7.8l-5.1-8.1C121.7,334,119,335.5,116.1,336.6"/>
			<path class="st1" d="M421.9,295.4v29c0,9.4-5.5,15.3-13.8,15.3s-14.4-5.9-14.4-15.3v-29h-9v28.1c0,14.7,9.2,24.3,23.3,24.3
				c12.2,0,14.2-7.7,14.2-7.9v10.4c0,10.3-4.5,16.2-13.9,16.2c-6.9,0-12.8-5.1-13.7-11.9l-8,2.8c2.4,10.1,11.4,17.3,21.8,17.3
				c14.5,0,22.5-9.6,22.5-24.3v-54.9L421.9,295.4L421.9,295.4z"/>
		</g>
	</g>
	<g>
		<g>
			<path class="st1" d="M269.5,195.7c-3.4,3-7.7,6.8-15.4,6.8h-4.6c-5.6,0-10.7-2-14.3-5.7c-3.6-3.6-5.5-8.5-5.5-13.9v-6.3
				c0-5.4,2-10.3,5.5-13.9c3.6-3.7,8.7-5.7,14.3-5.7h4.6c7.7,0,12,3.8,15.4,6.8c3.5,3.1,6.6,5.9,14.8,5.9c1.2,0,2.5-0.1,3.7-0.3
				l0-0.1c-0.5-1.2-1.1-2.4-1.7-3.5l-5.5-9.4c-5-8.7-14.3-14-24.3-14h-10.9c-10,0-19.3,5.3-24.3,14l-5.5,9.4c-5,8.7-5,19.4,0,28
				l5.5,9.4c5,8.7,14.3,14,24.3,14h10.9c10,0,19.3-5.3,24.3-14l5.5-9.4c0.7-1.1,1.2-2.3,1.7-3.5l0-0.1c-1.2-0.2-2.5-0.3-3.7-0.3
				C276.1,189.9,273,192.6,269.5,195.7"/>
			<path class="st1" d="M254.1,162.7h-4.6c-8.5,0-14.1,6.1-14.1,13.9v6.3c0,7.8,5.6,13.9,14.1,13.9h4.6c12.4,0,11.4-12.7,30.2-12.7
				c1.8,0,3.5,0.2,5.3,0.5c0.6-3.2,0.6-6.5,0-9.7c-1.7,0.3-3.5,0.5-5.3,0.5C265.5,175.4,266.5,162.7,254.1,162.7"/>
			<path class="st1" d="M300.3,189.3c-3.2-2.3-6.9-3.9-10.8-4.6v0.1c-0.3,1.9-0.9,3.7-1.6,5.5c3.2,0.5,6.3,1.8,8.9,3.7
				c0,0,0,0.1,0,0.1c-6.2,20.1-24.9,33.8-45.8,33.8c-26.3,0-48-21.7-48-48s21.7-48,48-48c21,0,39.7,13.8,45.8,33.8c0,0,0,0.1,0,0.1
				c-2.6,1.9-5.7,3.2-8.9,3.7c0.7,1.8,1.2,3.6,1.6,5.5c0,0,0,0.1,0,0.1c3.9-0.7,7.6-2.3,10.8-4.6c3.1-2.3,2.5-4.8,2-6.4
				c-6.9-22.5-27.9-37.9-51.4-37.9c-29.5,0-53.8,24.3-53.8,53.8s24.3,53.8,53.8,53.8c23.5,0,44.5-15.4,51.4-37.9
				C302.8,194.1,303.4,191.5,300.3,189.3"/>
		</g>
		<path class="st3" d="M288,169.4c-1.2,0.2-2.5,0.3-3.7,0.3c-8.2,0-11.2-2.7-14.8-5.9c-3.4-3-7.7-6.8-15.4-6.8h-4.6
			c-5.6,0-10.7,2-14.3,5.7c-3.6,3.6-5.5,8.5-5.5,13.9v6.3c0,5.4,2,10.3,5.5,13.9c3.6,3.7,8.7,5.7,14.3,5.7h4.6
			c7.7,0,12-3.8,15.4-6.8c3.5-3.1,6.6-5.9,14.8-5.9c1.2,0,2.5,0.1,3.7,0.3c0.7-1.8,1.2-3.6,1.6-5.5c0,0,0-0.1,0-0.1
			c-1.7-0.3-3.5-0.5-5.3-0.5c-18.7,0-17.8,12.7-30.2,12.7h-4.6c-8.5,0-14.1-6.1-14.1-13.9v-6.3c0-7.8,5.6-13.9,14.1-13.9h4.6
			c12.4,0,11.4,12.7,30.2,12.7c1.8,0,3.5-0.2,5.3-0.5v-0.1C289.2,172.9,288.7,171.1,288,169.4"/>
		<path class="st3" d="M288,169.4c-1.2,0.2-2.5,0.3-3.7,0.3c-8.2,0-11.2-2.7-14.8-5.9c-3.4-3-7.7-6.8-15.4-6.8h-4.6
			c-5.6,0-10.7,2-14.3,5.7c-3.6,3.6-5.5,8.5-5.5,13.9v6.3c0,5.4,2,10.3,5.5,13.9c3.6,3.7,8.7,5.7,14.3,5.7h4.6
			c7.7,0,12-3.8,15.4-6.8c3.5-3.1,6.6-5.9,14.8-5.9c1.2,0,2.5,0.1,3.7,0.3c0.7-1.8,1.2-3.6,1.6-5.5c0,0,0-0.1,0-0.1
			c-1.7-0.3-3.5-0.5-5.3-0.5c-18.7,0-17.8,12.7-30.2,12.7h-4.6c-8.5,0-14.1-6.1-14.1-13.9v-6.3c0-7.8,5.6-13.9,14.1-13.9h4.6
			c12.4,0,11.4,12.7,30.2,12.7c1.8,0,3.5-0.2,5.3-0.5v-0.1C289.2,172.9,288.7,171.1,288,169.4"/>
	</g>
</g>
</svg>
