<?xml version="1.0" encoding="utf-8"?>
<!-- Generator: Adobe Illustrator 25.3.0, SVG Export Plug-In . SVG Version: 6.00 Build 0)  -->
<svg version="1.1" id="Calque_1" xmlns="http://www.w3.org/2000/svg" xmlns:xlink="http://www.w3.org/1999/xlink" x="0px" y="0px"
	 viewBox="0 0 500 500" style="enable-background:new 0 0 500 500;" xml:space="preserve">
<style type="text/css">
	.st0{fill:#FFFFFF;}
	.st1{fill:#3448C5;}
</style>
<path class="st0" d="M81.2,0h340c44.2,0,80,35.8,80,80v340c0,44.2-35.8,80-80,80h-340c-44.2,0-80-35.8-80-80V80
	C1.2,35.8,37,0,81.2,0z"/>
<g>
	<g>
		<path class="st1" d="M341.2,162.1c-12.6-39.4-49.1-66.3-90.5-66.6c-34.8-0.2-66.8,18.8-83.3,49.5c-38.5,6.9-64.1,43.7-57.2,82.2
			c4.1,22.8,19.1,42.2,40.1,51.9l1.8,0.8h0.1v-20.1c-24.9-15.3-32.7-47.8-17.4-72.7c8.6-14,23.1-23.2,39.4-24.9l5-0.5l2.2-4.5
			c12.6-26.8,39.7-43.8,69.3-43.7c35.6,0.3,66.4,24.7,74.8,59.3l1.7,6.8h7.1c23.8,0.5,42.9,19.9,43,43.8c0,16.7-9.6,30.4-26.1,37.3
			v19.1l1.2-0.4c26.4-8.7,42.8-30.1,42.8-56C395.1,192.2,372,166.1,341.2,162.1z"/>
		<path class="st1" d="M208.9,277.5l3.9,3.9c0.3,0.3,0.3,0.8,0,1.1c-0.1,0.1-0.3,0.2-0.5,0.2h-31c-7.9,0-14.2-6.4-14.2-14.2v-60.3
			c0-0.4-0.4-0.8-0.8-0.8l0,0h-6.6c-0.4,0-0.8-0.3-0.8-0.8c0-0.2,0.1-0.4,0.2-0.6l26.4-26.4c0.3-0.3,0.8-0.3,1.1,0c0,0,0,0,0,0
			l26.3,26.4c0.3,0.3,0.3,0.8,0,1.1c-0.1,0.1-0.3,0.2-0.5,0.2h-6.7c-0.4,0-0.8,0.3-0.8,0.8v59.3
			C204.8,271.2,206.3,274.8,208.9,277.5z"/>
		<path class="st1" d="M267.2,277.5l4,3.9c0.3,0.3,0.3,0.8,0,1.1c-0.1,0.1-0.3,0.2-0.6,0.2h-31c-7.9,0-14.2-6.4-14.2-14.2v-45.1
			c0-0.4-0.3-0.8-0.8-0.8h-6.7c-0.4,0-0.8-0.4-0.8-0.8c0-0.2,0.1-0.4,0.2-0.5l26.3-26.3c0.3-0.3,0.8-0.3,1.1,0c0,0,0,0,0,0
			l26.4,26.3c0.3,0.3,0.3,0.8,0,1.1c-0.1,0.1-0.3,0.2-0.6,0.2h-6.7c-0.4,0-0.8,0.4-0.8,0.8v44.1
			C263.1,271.2,264.5,274.8,267.2,277.5z"/>
		<path class="st1" d="M325.4,277.5l3.9,3.9c0.3,0.3,0.3,0.8,0,1.1c-0.1,0.1-0.3,0.2-0.5,0.2h-31.1c-7.9,0-14.2-6.4-14.2-14.2v-29.9
			c0-0.4-0.4-0.8-0.8-0.8l0,0h-6.6c-0.4,0-0.8-0.3-0.8-0.8c0-0.2,0.1-0.4,0.2-0.6l26.4-26.3c0.3-0.3,0.8-0.3,1.1,0c0,0,0,0,0,0
			l26.4,26.3c0.3,0.3,0.3,0.8,0,1.1c-0.1,0.2-0.4,0.2-0.6,0.2h-6.8c-0.4,0-0.8,0.4-0.8,0.8v0v28.9
			C321.3,271.2,322.8,274.8,325.4,277.5z"/>
	</g>
	<g>
		<path class="st1" d="M96.1,338.1c5.3,0,10.3,2.5,13.6,6.7c0.2,0.3,0.7,0.4,1,0.1c0,0,0,0,0,0l5.7-4.5c0.3-0.2,0.4-0.7,0.1-1
			c0,0,0,0,0,0c-4.9-6.4-12.5-10.1-20.6-10.1c-14.9,0-27,12.8-27,28.6c0,15.8,12.1,28.6,27,28.6c8.1,0,15.7-3.7,20.6-10.1
			c0.2-0.3,0.2-0.7-0.1-1c0,0,0,0,0,0l-5.7-4.5c-0.3-0.2-0.8-0.2-1,0.1c0,0,0,0,0,0c-3.3,4.2-8.2,6.6-13.6,6.7
			c-10.2,0-18.2-8.7-18.2-19.8S85.9,338.1,96.1,338.1z"/>
		<path class="st1" d="M123.8,327.6h7.2c0.4,0,0.7,0.3,0.7,0.7c0,0,0,0,0,0v56.8c0,0.4-0.3,0.7-0.7,0.7h-7.2c-0.4,0-0.7-0.3-0.7-0.7
			v0v-56.8C123.1,328,123.4,327.6,123.8,327.6C123.8,327.6,123.8,327.6,123.8,327.6z"/>
		<path class="st1" d="M156.1,347.3c-9.5,0-19.1,6.7-19.1,19.6c0,11.3,8.2,19.8,19.1,19.8s19.2-8.5,19.2-19.8S167,347.3,156.1,347.3
			z M166.6,366.9c0,6.5-4.5,11.4-10.5,11.4s-10.4-4.9-10.4-11.4s4.5-11.2,10.4-11.2S166.6,360.5,166.6,366.9L166.6,366.9z"/>
		<path class="st1" d="M213.9,348.1h-7.2c-0.4,0-0.7,0.3-0.7,0.7c0,0,0,0,0,0v19c0,7.4-5.1,10-9.5,10c-3.9,0-7.8-2.9-7.8-9.5v-19.6
			c0-0.4-0.3-0.7-0.7-0.7c0,0,0,0,0,0h-7.2c-0.4,0-0.7,0.3-0.7,0.7v20.5c0,11.2,5.1,17.4,14.3,17.4c3.4,0,8.8-1.9,10.8-6.2l0.7,0.1
			v4.4c0,0.4,0.3,0.7,0.7,0.7h7.2c0.4,0,0.7-0.3,0.7-0.7v-36.3C214.6,348.4,214.3,348.1,213.9,348.1
			C213.9,348.1,213.9,348.1,213.9,348.1z"/>
		<path class="st1" d="M257.8,327.6h-7.2c-0.4,0-0.7,0.3-0.7,0.7c0,0,0,0,0,0v25.4l-0.4-0.7c-2.2-3.5-6.9-5.8-12-5.8
			c-8.8,0-17.6,6.8-17.6,19.6c0,11.2,7.6,19.7,17.7,19.7c3.8,0,9.2-1.5,11.9-5.9l0.4-0.7v5.1c0,0.4,0.3,0.7,0.7,0.7c0,0,0,0,0,0h7.2
			c0.4,0,0.7-0.3,0.7-0.7c0,0,0,0,0,0v-56.8C258.5,328,258.2,327.6,257.8,327.6C257.8,327.6,257.8,327.6,257.8,327.6z M249.8,366.9
			c0.2,6.1-4.6,11.2-10.6,11.4c0,0-0.1,0-0.1,0c-5.9,0-10.5-5-10.5-11.4c0-6.4,4.6-11.2,10.5-11.2
			C245.1,355.8,249.9,360.8,249.8,366.9L249.8,366.9z"/>
		<path class="st1" d="M268.6,348.1h7.2c0.4,0,0.7,0.3,0.7,0.7c0,0,0,0,0,0v36.3c0,0.4-0.3,0.7-0.7,0.7l0,0h-7.2
			c-0.4,0-0.7-0.3-0.7-0.7v-36.3C267.9,348.4,268.2,348.1,268.6,348.1z"/>
		<path class="st1" d="M272.2,328.8c-3.1-0.1-5.6,2.4-5.7,5.4c0,0,0,0.1,0,0.1c0,3.1,2.6,5.6,5.7,5.6c3.1,0,5.6-2.4,5.6-5.5
			c0,0,0-0.1,0-0.1c0.1-3-2.4-5.5-5.4-5.6C272.3,328.8,272.2,328.8,272.2,328.8z"/>
		<path class="st1" d="M305.9,347.3c-3.1,0-8.7,1.7-10.9,6.2l-0.7-0.1v-4.5c0-0.4-0.3-0.7-0.7-0.7c0,0,0,0,0,0h-7.2
			c-0.4,0-0.7,0.3-0.7,0.7c0,0,0,0,0,0v36.3c0,0.4,0.3,0.7,0.7,0.7c0,0,0,0,0,0h7.2c0.4,0,0.7-0.3,0.7-0.7v-19c0-7.4,5.1-10,9.5-10
			c3.9,0,7.8,2.9,7.8,9.4v19.6c0,0.4,0.3,0.7,0.7,0.7h7.2c0.4,0,0.7-0.3,0.7-0.7v-20.5C320.2,353.5,315.1,347.3,305.9,347.3z"/>
		<path class="st1" d="M363,348.1h-7.2c-0.4,0-0.7,0.3-0.7,0.7c0,0,0,0,0,0v5l-0.4-0.7c-2.2-3.5-6.9-5.8-12-5.8
			c-8.8,0-17.6,6.8-17.6,19.6c0,11.2,7.6,19.7,17.7,19.7c3.8,0,9.2-1.5,11.9-5.9l0.4-0.7v5c0,0.4,0.3,0.7,0.7,0.7h7.2
			c0.4,0,0.7-0.3,0.7-0.7c0,0,0,0,0,0v-36.3C363.7,348.4,363.4,348.1,363,348.1z M355,366.9c0.2,6.1-4.6,11.2-10.6,11.4
			c0,0-0.1,0-0.1,0c-5.9,0-10.4-5-10.4-11.4c0-6.4,4.6-11.2,10.4-11.2C350.3,355.8,355.1,360.8,355,366.9L355,366.9z"/>
		<path class="st1" d="M395.7,348.2c-1.6-0.7-3.4-1-5.1-1c-4.8,0-8.2,2.9-10,8.2l-0.6-0.1v-6.6c0-0.4-0.3-0.7-0.7-0.7c0,0,0,0,0,0
			h-7.2c-0.4,0-0.7,0.3-0.7,0.7c0,0,0,0,0,0v36.3c0,0.4,0.3,0.7,0.7,0.7h7.2c0.4,0,0.7-0.3,0.7-0.7c0,0,0,0,0,0v-12.4
			c0-14.8,5.9-17,9.4-17c1.5,0,3,0.3,4.3,0.9c0.2,0.1,0.4,0.1,0.6,0c0.2-0.1,0.3-0.3,0.4-0.5l1.4-7.1
			C396.2,348.7,396,348.4,395.7,348.2z"/>
		<path class="st1" d="M435.4,348.4c-0.1-0.2-0.4-0.3-0.6-0.3h-7.7c-0.3,0-0.6,0.2-0.7,0.5l-9.3,24.2l-9.4-24.2
			c-0.1-0.3-0.4-0.4-0.7-0.5h-7.9c-0.2,0-0.5,0.1-0.6,0.3c-0.1,0.2-0.2,0.4-0.1,0.7l14,34.4l-7.7,20.1c-0.2,0.4,0,0.8,0.4,0.9
			c0.1,0,0.2,0.1,0.3,0.1h7.5c0.3,0,0.5-0.2,0.6-0.5l21.9-55C435.6,348.9,435.6,348.6,435.4,348.4z"/>
	</g>
</g>
</svg>
