<svg xmlns="http://www.w3.org/2000/svg" xmlns:xlink="http://www.w3.org/1999/xlink" viewBox="0 0 500 500" xml:space="preserve">
<path fill="#FFFFFF" d="M80,0h340c44.2,0,80,35.8,80,80v340c0,44.2-35.8,80-80,80H80c-44.2,0-80-35.8-80-80V80C0,35.8,35.8,0,80,0z"/>
<path fill="#FF8433" d="M394.4,199.3H258.5c-6.6,0-12-5.4-12-12V51.4c0-6.6,5.4-12,12-12h135.9c6.6,0,12,5.4,12,12v135.9
	C406.4,193.9,401,199.3,394.4,199.3z"/>
<path fill="#FF8433" d="M84.9,165.5c0,0-11.3,12.7,0,37.2l148.8,146.8c0,0,15.3,17.5,42.6,5.5l107.5-105.9c0,0,5.5-22.4-15.3-28.4
	l-117.9,2.7c0,0-37.7,8.2-32.8-22.9V79.4c0,0,0-47.5-42.6-6.6L84.9,165.5z"/>
<g fill="#000000">
	<path d="M101,387.7h44.5v12.4h-31.6V414h28v12.4h-28v14.1h32.9v12.4H101V387.7z"/>
	<path d="M169.2,414.2l1,6.8l-0.2-0.5c1.5-2.6,3.5-4.6,5.8-6.1c2.3-1.4,5.1-2.2,8.3-2.2c3.1,0,5.8,0.7,7.9,1.9
		c2.1,1.3,3.5,3.3,4.2,6l-0.4,0.1c1.7-2.4,3.6-4.4,6-5.8c2.3-1.5,4.8-2.2,7.3-2.2c3.8,0,6.9,1.1,9.2,3.2c2.3,2.2,3.4,4.9,3.5,8.4
		v29.1h-12.3V429c-0.1-1.7-0.3-3.1-0.8-4.2c-0.5-1.1-1.6-1.7-3.3-1.8c-2,0-3.7,0.7-5.1,2.1c-1.4,1.4-2.4,3.2-3.1,5.3
		c-0.7,2.2-1,4.4-1,6.7v15.9h-12.4V429c-0.1-1.7-0.4-3.1-0.9-4.2c-0.6-1.1-1.7-1.7-3.4-1.8c-1.9,0-3.6,0.7-4.9,2.1
		c-1.3,1.4-2.3,3.1-3,5.3c-0.7,2.1-1,4.3-1,6.6v16H158v-38.7H169.2z"/>
	<path d="M250.7,454c-3.6,0-6.9-0.7-9.8-2.2c-2.9-1.4-5.2-3.7-7-6.7c-1.7-3-2.6-6.9-2.6-11.5c0-4.4,0.9-8.2,2.7-11.3
		c1.8-3.2,4.1-5.7,7-7.4c2.9-1.7,6-2.6,9.2-2.6c3.8,0,6.7,0.6,8.7,1.9c2,1.3,3.6,2.7,4.9,4.2l-0.5,1.5l1.2-5.7h11.5v38.7h-12.4v-8.4
		l1,2.7c-0.1,0-0.5,0.3-1.1,1c-0.6,0.7-1.5,1.5-2.6,2.4c-1.2,0.9-2.6,1.7-4.3,2.4C255,453.6,253,454,250.7,454z M254.3,443.9
		c2.2,0,4.1-0.5,5.7-1.5c1.5-1,2.8-2.4,3.7-4.4v-9.5c-0.7-1.9-1.9-3.4-3.7-4.5c-1.7-1.1-3.8-1.7-6.2-1.7c-1.8,0-3.4,0.5-4.9,1.4
		c-1.5,0.9-2.7,2.2-3.6,3.8c-0.9,1.6-1.3,3.4-1.3,5.5s0.5,3.9,1.4,5.6c0.9,1.7,2.2,3,3.8,3.9C250.8,443.4,252.5,443.9,254.3,443.9z"/>
	<path d="M288.6,400.4c0-1.8,0.7-3.3,2.2-4.5c1.4-1.2,3-1.8,4.7-1.8c1.7,0,3.2,0.6,4.6,1.8c1.4,1.2,2.1,2.7,2.1,4.5
		c0,1.8-0.7,3.3-2.1,4.5c-1.4,1.2-2.9,1.7-4.6,1.7c-1.7,0-3.2-0.6-4.7-1.7C289.3,403.8,288.6,402.3,288.6,400.4z M288.8,414.2h12.4
		v38.7h-12.4V414.2z"/>
	<path d="M314,383h12.4v69.9H314V383z"/>
	<path d="M359.8,439.2c0,5.7-1.1,10.5-3.4,14.5c-2.2,4-5.4,7.1-9.3,9.3c-4,2.2-8.6,3.3-13.9,3.5V454c4-0.2,7.3-1.5,9.8-3.7
		c2.5-2.2,3.8-6,3.8-11.3v-51.2h12.9V439.2z"/>
	<path d="M411.4,403.5c-2.5-1.4-5-2.5-7.6-3.4c-2.6-0.9-5-1.3-7.2-1.3c-2.8,0-5,0.6-6.6,1.7c-1.6,1.1-2.4,2.8-2.4,5
		c0,1.5,0.6,2.9,1.8,4.1c1.2,1.2,2.8,2.3,4.7,3.2c1.9,0.9,3.9,1.8,6,2.6c2.5,0.9,5,2.1,7.4,3.6c2.4,1.4,4.3,3.4,5.8,5.9
		c1.5,2.5,2.3,5.8,2.3,10c0,3.3-0.9,6.4-2.6,9.2s-4.2,5.1-7.5,6.9s-7.4,2.6-12.2,2.6c-3.7,0-7.5-0.6-11.4-1.7s-7.5-2.9-10.9-5.3
		l5.7-10c2.2,1.7,4.8,3,7.7,4.1c2.9,1.1,5.5,1.6,7.8,1.6c1.5,0,3.1-0.2,4.7-0.7c1.6-0.4,2.9-1.2,3.9-2.3c1-1.1,1.6-2.5,1.6-4.4
		c0-1.3-0.4-2.5-1.3-3.5c-0.9-1.1-2-2-3.5-2.9c-1.4-0.9-3-1.7-4.7-2.3c-2-0.8-4.1-1.7-6.2-2.7c-2.1-1-4.1-2.2-6-3.7
		c-1.9-1.4-3.4-3.2-4.5-5.4c-1.2-2.2-1.7-4.8-1.7-7.9c0-3.8,0.8-7.1,2.5-9.8c1.7-2.8,4.1-5,7.1-6.6c3.1-1.6,6.6-2.5,10.6-2.7
		c5.3,0,9.5,0.6,12.8,1.9c3.3,1.2,6.2,2.7,8.8,4.4L411.4,403.5z"/>
</g>
</svg>
