<?xml version="1.0" encoding="utf-8"?>
<!-- Generator: Adobe Illustrator 25.3.0, SVG Export Plug-In . SVG Version: 6.00 Build 0)  -->
<svg version="1.1" id="Calque_1" xmlns="http://www.w3.org/2000/svg" xmlns:xlink="http://www.w3.org/1999/xlink" x="0px" y="0px"
	 viewBox="0 0 500 500" style="enable-background:new 0 0 500 500;" xml:space="preserve">
<style type="text/css">
	.st0{fill:url(#SVGID_1_);}
	.st1{fill:#FFFFFF;}
</style>
<linearGradient id="SVGID_1_" gradientUnits="userSpaceOnUse" x1="250" y1="432.0883" x2="250" y2="64.374">
	<stop  offset="0" style="stop-color:#BF0000"/>
	<stop  offset="1" style="stop-color:#8F0000"/>
</linearGradient>
<path class="st0" d="M472.1,13.9h-21c0,8.8-7.1,15.9-15.9,15.9c-8.8,0-15.9-7.1-15.9-15.9h-21c0,8.8-7.1,15.9-15.9,15.9
	c-8.8,0-15.9-7.1-15.9-15.9h-21c0,8.8-7.1,15.9-15.9,15.9c-8.8,0-15.9-7.1-15.9-15.9h-21c0,8.8-7.1,15.9-15.9,15.9
	c-8.8,0-15.9-7.1-15.9-15.9h-21c0,8.8-7.1,15.9-15.9,15.9c-8.8,0-15.9-7.1-15.9-15.9h-21c0,8.8-7.1,15.9-15.9,15.9
	c-8.8,0-15.9-7.1-15.9-15.9h-21c0,8.8-7.1,15.9-15.9,15.9s-15.9-7.1-15.9-15.9h-21c0,8.8-7.1,15.9-15.9,15.9S49,22.7,49,13.9h-21
	c0,4.2-1.7,8.3-4.7,11.3c-3,3-7.1,4.7-11.3,4.7v21c8.8,0,15.9,7.1,15.9,15.9c0,8.8-7.1,15.9-15.9,15.9v21c8.8,0,15.9,7.1,15.9,15.9
	c0,8.8-7.1,15.9-15.9,15.9v21c8.8,0,15.9,7.1,15.9,15.9c0,8.8-7.1,15.9-15.9,15.9v21c8.8,0,15.9,7.1,15.9,15.9
	c0,8.8-7.1,15.9-15.9,15.9v21c8.8,0,15.9,7.1,15.9,15.9c0,8.8-7.1,15.9-15.9,15.9v21c8.8,0,15.9,7.1,15.9,15.9
	c0,8.8-7.1,15.9-15.9,15.9v21c8.8,0,15.9,7.1,15.9,15.9c0,8.8-7.1,15.9-15.9,15.9v21c8.8,0,15.9,7.1,15.9,15.9
	c0,8.8-7.1,15.9-15.9,15.9v21c4.2,0,8.3,1.7,11.3,4.7c3,3,4.7,7.1,4.7,11.3h21c0-8.8,7.1-15.9,15.9-15.9s15.9,7.1,15.9,15.9h21
	c0-8.8,7.1-15.9,15.9-15.9s15.9,7.1,15.9,15.9h21c0-8.8,7.1-15.9,15.9-15.9s15.9,7.1,15.9,15.9h21c0-8.8,7.1-15.9,15.9-15.9
	s15.9,7.1,15.9,15.9h21c0-8.8,7.1-15.9,15.9-15.9c8.8,0,15.9,7.1,15.9,15.9h21c0-8.8,7.1-15.9,15.9-15.9c8.8,0,15.9,7.1,15.9,15.9
	h21c0-8.8,7.1-15.9,15.9-15.9c8.8,0,15.9,7.1,15.9,15.9h21c0-8.8,7.1-15.9,15.9-15.9c8.8,0,15.9,7.1,15.9,15.9h21
	c0-4.2,1.7-8.3,4.7-11.3c3-3,7.1-4.7,11.3-4.7v-21c-8.8,0-15.9-7.1-15.9-15.9c0-8.8,7.1-15.9,15.9-15.9v-21
	c-8.8,0-15.9-7.1-15.9-15.9c0-8.8,7.1-15.9,15.9-15.9v-21c-8.8,0-15.9-7.1-15.9-15.9c0-8.8,7.1-15.9,15.9-15.9v-21
	c-8.8,0-15.9-7.1-15.9-15.9s7.1-15.9,15.9-15.9v-21c-8.8,0-15.9-7.1-15.9-15.9c0-8.8,7.1-15.9,15.9-15.9v-21
	c-8.8,0-15.9-7.1-15.9-15.9s7.1-15.9,15.9-15.9v-21c-8.8,0-15.9-7.1-15.9-15.9c0-8.8,7.1-15.9,15.9-15.9v-21
	c-8.8,0-15.9-7.1-15.9-15.9c0-8.8,7.1-15.9,15.9-15.9v-21c-4.2,0-8.3-1.7-11.3-4.7C473.8,22.2,472.1,18.1,472.1,13.9z"/>
<path id="path2314_1_" class="st1" d="M398.7,202.9H209.1l9.9-46.3h115.6l10.6-49.8H179l-52.3,246.7h50.2l23-107.8h120.4
	L215.7,349.3l18.4,32.5c8.5-5.7,22.3-6.4,31.8-6.4c17,0,33.6,5.7,50.9,5.7c15.9,0,32.1-1.1,58.6-13.8l9.3-43.5
	c-18,7.4-44.7,14.5-67.9,14.5c-9.5,0-18.4-2.1-27.6-3.5l101.4-98.6L398.7,202.9L398.7,202.9z"/>
</svg>
