<?xml version="1.0" encoding="utf-8"?>
<!-- Generator: Adobe Illustrator 25.3.0, SVG Export Plug-In . SVG Version: 6.00 Build 0)  -->
<svg version="1.1" id="Calque_1" xmlns="http://www.w3.org/2000/svg" xmlns:xlink="http://www.w3.org/1999/xlink" x="0px" y="0px"
	 viewBox="0 0 500 500" style="enable-background:new 0 0 500 500;" xml:space="preserve">
<style type="text/css">
	.st0{fill-rule:evenodd;clip-rule:evenodd;fill:#FFFFFF;}
	.st1{fill-rule:evenodd;clip-rule:evenodd;fill:#00F2E6;}
	.st2{fill-rule:evenodd;clip-rule:evenodd;fill:#00B9F1;}
	.st3{fill-rule:evenodd;clip-rule:evenodd;fill:#D63AFF;}
	.st4{fill-rule:evenodd;clip-rule:evenodd;fill:#FB015B;}
</style>
<path d="M80,0h340c44.2,0,80,35.8,80,80v340c0,44.2-35.8,80-80,80H80c-44.2,0-80-35.8-80-80V80C0,35.8,35.8,0,80,0z"/>
<g>
	<path class="st0" d="M262.7,130.8l-0.2-45.6h-25.5l0.2,45.6l12.7,17.5L262.7,130.8z M237.2,208.9v45.8h25.5v-45.8L250,191.5
		L237.2,208.9z"/>
	<path class="st1" d="M262.7,208.9l26.8,37L310,231l-26.8-37l-20.5-6.6V208.9z M237.2,130.8l-27-37l-20.5,14.9l26.8,37l20.7,6.6
		V130.8z"/>
	<path class="st2" d="M216.6,145.7l-43.4-14.1l-7.8,24.1l43.4,14.2l20.5-6.8L216.6,145.7z M270.5,176.5l12.7,17.5l43.4,14.1
		l7.8-24.1L291,169.9L270.5,176.5z"/>
	<path class="st3" d="M291,169.9l43.4-14.2l-7.8-24.1l-43.4,14.1l-12.7,17.5L291,169.9z M208.7,169.9L165.3,184l7.8,24.1l43.4-14.1
		l12.7-17.5L208.7,169.9z"/>
	<path class="st4" d="M216.6,194l-26.8,37l20.5,14.9l27-37v-21.5L216.6,194z M283.2,145.7l26.8-37l-20.5-14.9l-26.8,37v21.5
		L283.2,145.7z"/>
</g>
<path class="st0" d="M114.9,310.4v72.9c0,16-13.1,29.2-29.2,29.2v-14.6c8.1,0,14.6-6.5,14.6-14.6v-72.9H114.9z M381.2,325h32.9
	v-14.6h-80.2V325h32.7v87.5h14.6V325z M289.9,310.4v72.9c0,8.1-6.5,14.6-14.6,14.6c-8.1,0-14.6-6.5-14.6-14.6v-43.7
	c0-16-13.1-29.2-29.2-29.2s-29.2,13.1-29.2,29.2v43.8c0,8.1-6.5,14.6-14.6,14.6s-14.6-6.5-14.6-14.6v-72.9h-14.6v72.9
	c0,16,13.1,29.2,29.2,29.2s29.2-13.1,29.2-29.2v-43.7c0-8.1,6.5-14.6,14.6-14.6s14.6,6.5,14.6,14.6v43.8c0,16,13.1,29.2,29.2,29.2
	s29.2-13.1,29.2-29.2v-72.9H289.9z"/>
</svg>
