<?xml version="1.0" encoding="utf-8"?>
<!-- Generator: Adobe Illustrator 25.3.0, SVG Export Plug-In . SVG Version: 6.00 Build 0)  -->
<svg version="1.1" id="Calque_1" xmlns="http://www.w3.org/2000/svg" xmlns:xlink="http://www.w3.org/1999/xlink" x="0px" y="0px"
	 viewBox="0 0 500 500" style="enable-background:new 0 0 500 500;" xml:space="preserve">
<style type="text/css">
	.st0{fill:url(#SVGID_1_);}
	.st1{fill:#FFFFFF;}
</style>
<g>
	
		<radialGradient id="SVGID_1_" cx="-45.2915" cy="669.9158" r="8.0938" gradientTransform="matrix(64 63.1594 64 -63.1594 -39975.9727 45172.7773)" gradientUnits="userSpaceOnUse">
		<stop  offset="0" style="stop-color:#0ECAD4"/>
		<stop  offset="1" style="stop-color:#039B5C"/>
	</radialGradient>
	<path class="st0" d="M115.3,14.8l-101,99.7C5.1,123.5,0,135.6,0,148.3v339.6c0,13.3,10.8,24,24.3,24h469.4
		c13.4,0,24.3-10.7,24.3-24V24.7c0-13.3-10.8-24-24.3-24H149.7C136.8,0.7,124.4,5.7,115.3,14.8L115.3,14.8z"/>
	<path class="st1" d="M250.6,162.3v-52.7c0-3.7-2.2-7-5.7-8.4c-1.1-0.5-2.3-0.7-3.5-0.7c-2.5,0-4.8,0.9-6.5,2.7L116,220.5
		c-25,24.9-25.2,49.9-0.5,74.2l119.4,117.8c1.7,1.7,4,2.7,6.5,2.7c1.2,0,2.4-0.2,3.5-0.7c3.4-1.4,5.7-4.7,5.7-8.4v-53.2
		c0-2.4-1-4.7-2.7-6.4l-90.1-88.9l90-88.9C249.6,167,250.6,164.7,250.6,162.3L250.6,162.3z M232.2,384.1L144.9,298
		c-0.3-0.4-0.6-0.8-1-1.2c-7.4-7.3-7-15.9,1.2-26.1l87.1,85.9V384.1z M232.2,131.6v26.9l-95.2,94c-7.3,7.2-12.3,14.6-14.8,22.1
		c-10.5-13.9-8.4-26.1,6.9-41.3L232.2,131.6z"/>
	<path class="st1" d="M402.5,221L283.1,103.2c-1.7-1.7-4-2.7-6.5-2.7c-1.2,0-2.4,0.2-3.5,0.7c-3.4,1.4-5.7,4.7-5.7,8.4v53.2
		c0,2.4,0.9,4.7,2.7,6.4l90,88.9l-90,88.9c-1.7,1.7-2.7,4-2.7,6.4v52.7c0,3.7,2.2,7,5.7,8.4c1.1,0.5,2.3,0.7,3.5,0.7
		c2.5,0,4.8-0.9,6.5-2.7L402,295.2C427,270.3,427.2,245.4,402.5,221z M285.8,131.6l87.3,86.1c0.3,0.4,0.6,0.8,1,1.2
		c4.8,4.7,6.3,9.4,4.7,15.1c-0.9,3.5-2.9,7.2-6,11.1l-87-85.9V131.6z M388.9,282.4L285.8,384.1v-26.9l95.2-94
		c5.1-5.1,11.6-12.8,14.8-22.1C406.4,255,404.3,267.2,388.9,282.4L388.9,282.4z"/>
	<path class="st1" d="M309.6,248.8H208.4c-5.1,0-9.2,4.1-9.2,9.1c0,5,4.1,9.1,9.2,9.1h101.2c5.1,0,9.2-4.1,9.2-9.1
		C318.8,252.8,314.7,248.8,309.6,248.8z"/>
	<path class="st1" d="M269,208.7H249c-5.1,0-9.2,4.1-9.2,9.1c0,5,4.1,9.1,9.2,9.1H269c5.1,0,9.2-4.1,9.2-9.1
		C278.2,212.7,274.1,208.7,269,208.7z"/>
	<path class="st1" d="M269,288.8H249c-5.1,0-9.2,4.1-9.2,9.1s4.1,9.1,9.2,9.1H269c5.1,0,9.2-4.1,9.2-9.1S274.1,288.8,269,288.8z"/>
</g>
</svg>
