<?xml version="1.0" encoding="utf-8"?>
<!-- Generator: Adobe Illustrator 25.3.0, SVG Export Plug-In . SVG Version: 6.00 Build 0)  -->
<svg version="1.1" id="Calque_1" xmlns="http://www.w3.org/2000/svg" xmlns:xlink="http://www.w3.org/1999/xlink" x="0px" y="0px"
	 viewBox="0 0 500 500" style="enable-background:new 0 0 500 500;" xml:space="preserve">
<style type="text/css">
	.st0{fill:#FFFFFF;}
</style>
<path d="M80,0h340c44.2,0,80,35.8,80,80v340c0,44.2-35.8,80-80,80H80c-44.2,0-80-35.8-80-80V80C0,35.8,35.8,0,80,0z"/>
<path class="st0" d="M125.5,417V83h150.3c21.3,0,40.6,4.6,57.7,13.8c17.5,9.2,31.2,21.9,41,38.2c9.9,15.9,14.8,34,14.8,54.4
	c0,21-4.9,39.9-14.8,56.8c-9.9,16.5-23.4,29.6-40.6,39.1c-17.2,9.5-36.6,14.3-58.2,14.3h-73V417H125.5z M310.6,417l-84.9-150.8
	l83-11.9L403.1,417H310.6z M202.8,237.6h65.8c8.3,0,15.4-1.8,21.5-5.3c6.4-3.8,11.1-9.1,14.3-15.8c3.5-6.7,5.3-14.3,5.3-22.9
	c0-8.6-1.9-16.1-5.7-22.4c-3.8-6.7-9.4-11.8-16.7-15.3c-7-3.5-15.6-5.3-25.8-5.3h-58.7V237.6z"/>
</svg>
