<?xml version="1.0" encoding="utf-8"?>
<!-- Generator: Adobe Illustrator 25.3.0, SVG Export Plug-In . SVG Version: 6.00 Build 0)  -->
<svg version="1.1" id="Calque_1" xmlns="http://www.w3.org/2000/svg" xmlns:xlink="http://www.w3.org/1999/xlink" x="0px" y="0px"
	 viewBox="0 0 2772.7 2794.1" style="enable-background:new 0 0 2772.7 2794.1;" xml:space="preserve">
<style type="text/css">
	.st0{fill:#FFFFFF;}
</style>
<path class="st0" d="M2821.5,2844.2H-20.2c-6.6,0-12-5.4-12-12V-70.3c0-6.6,5.4-12,12-12h2841.7c6.6,0,12,5.4,12,12v2902.5
	C2833.5,2838.8,2828.1,2844.2,2821.5,2844.2z"/>
<path d="M419.6,2662.5v-2500h1125c159.5,0,303.6,34.5,432.1,103.6c131,69,233.3,164.3,307.1,285.7c73.8,119,110.7,254.8,110.7,407.1
	c0,157.1-36.9,298.8-110.7,425c-73.8,123.8-175,221.4-303.6,292.9c-128.6,71.4-273.8,107.1-435.7,107.1H998.2v878.6L419.6,2662.5z
	 M1805.3,2662.5l-635.7-1128.6l621.4-89.3l707.1,1217.9H1805.3z M998.2,1319.6H1491c61.9,0,115.5-13.1,160.7-39.3
	c47.6-28.6,83.3-67.9,107.1-117.9c26.2-50,39.3-107.1,39.3-171.4c0-64.3-14.3-120.2-42.9-167.9c-28.6-50-70.2-88.1-125-114.3
	c-52.4-26.2-116.7-39.3-192.9-39.3H998.2L998.2,1319.6z"/>
</svg>
