<?xml version="1.0" encoding="utf-8"?>
<!-- Generator: Adobe Illustrator 25.3.0, SVG Export Plug-In . SVG Version: 6.00 Build 0)  -->
<svg version="1.1" id="Calque_1" xmlns="http://www.w3.org/2000/svg" xmlns:xlink="http://www.w3.org/1999/xlink" x="0px" y="0px"
	 viewBox="0 0 500 500" style="enable-background:new 0 0 500 500;" xml:space="preserve">
<style type="text/css">
	.st0{fill:#FFFFFF;}
	.st1{fill:#3448C5;}
	.st2{fill:#FB4725;}
	.st3{fill:#FF7B39;}
	.st4{fill:#FC9B3A;}
	.st5{fill:#22B45C;}
	.st6{fill:#91CA06;}
	.st7{fill:#D6D230;}
	.st8{fill:#0066B6;}
	.st9{fill:#429ACC;}
	.st10{fill:#6CBADD;}
	.st11{fill:#595959;}
</style>
<path class="st0" d="M81.2,0h340c44.2,0,80,35.8,80,80v340c0,44.2-35.8,80-80,80h-340c-44.2,0-80-35.8-80-80V80
	C1.2,35.8,37,0,81.2,0z"/>
<g>
	<g>
		<path class="st1" d="M-366.8,490.1c-12.6-39.4-49.1-66.3-90.5-66.6c-34.8-0.2-66.8,18.8-83.3,49.5c-38.5,6.9-64.1,43.7-57.2,82.2
			c4.1,22.8,19.1,42.2,40.1,51.9l1.8,0.8h0.1v-20.1c-24.9-15.3-32.7-47.8-17.4-72.7c8.6-14,23.1-23.2,39.4-24.9l5-0.5l2.2-4.5
			c12.6-26.8,39.7-43.8,69.3-43.7c35.6,0.3,66.4,24.7,74.8,59.3l1.7,6.8h7.1c23.8,0.5,42.9,19.9,43,43.8c0,16.7-9.6,30.4-26.1,37.3
			v19.1l1.2-0.4c26.4-8.7,42.8-30.1,42.8-56C-312.9,520.2-336,494.1-366.8,490.1z"/>
		<path class="st1" d="M-499.1,605.5l3.9,3.9c0.3,0.3,0.3,0.8,0,1.1c-0.1,0.1-0.3,0.2-0.5,0.2h-31c-7.9,0-14.2-6.4-14.2-14.2v-60.3
			c0-0.4-0.4-0.8-0.8-0.8l0,0h-6.6c-0.4,0-0.8-0.3-0.8-0.8c0-0.2,0.1-0.4,0.2-0.6l26.4-26.4c0.3-0.3,0.8-0.3,1.1,0l0,0l26.3,26.4
			c0.3,0.3,0.3,0.8,0,1.1c-0.1,0.1-0.3,0.2-0.5,0.2h-6.7c-0.4,0-0.8,0.3-0.8,0.8v59.3C-503.2,599.2-501.7,602.8-499.1,605.5z"/>
		<path class="st1" d="M-440.8,605.5l4,3.9c0.3,0.3,0.3,0.8,0,1.1c-0.1,0.1-0.3,0.2-0.6,0.2h-31c-7.9,0-14.2-6.4-14.2-14.2v-45.1
			c0-0.4-0.3-0.8-0.8-0.8h-6.7c-0.4,0-0.8-0.4-0.8-0.8c0-0.2,0.1-0.4,0.2-0.5l26.3-26.3c0.3-0.3,0.8-0.3,1.1,0l0,0l26.4,26.3
			c0.3,0.3,0.3,0.8,0,1.1c-0.1,0.1-0.3,0.2-0.6,0.2h-6.7c-0.4,0-0.8,0.4-0.8,0.8v44.1C-444.9,599.2-443.5,602.8-440.8,605.5z"/>
		<path class="st1" d="M-382.6,605.5l3.9,3.9c0.3,0.3,0.3,0.8,0,1.1c-0.1,0.1-0.3,0.2-0.5,0.2h-31.1c-7.9,0-14.2-6.4-14.2-14.2
			v-29.9c0-0.4-0.4-0.8-0.8-0.8l0,0h-6.6c-0.4,0-0.8-0.3-0.8-0.8c0-0.2,0.1-0.4,0.2-0.6l26.4-26.3c0.3-0.3,0.8-0.3,1.1,0l0,0
			l26.4,26.3c0.3,0.3,0.3,0.8,0,1.1c-0.1,0.2-0.4,0.2-0.6,0.2h-6.8c-0.4,0-0.8,0.4-0.8,0.8l0,0v28.9
			C-386.7,599.2-385.2,602.8-382.6,605.5z"/>
	</g>
	<g>
		<path class="st1" d="M-611.9,666.1c5.3,0,10.3,2.5,13.6,6.7c0.2,0.3,0.7,0.4,1,0.1l0,0l5.7-4.5c0.3-0.2,0.4-0.7,0.1-1l0,0
			c-4.9-6.4-12.5-10.1-20.6-10.1c-14.9,0-27,12.8-27,28.6c0,15.8,12.1,28.6,27,28.6c8.1,0,15.7-3.7,20.6-10.1c0.2-0.3,0.2-0.7-0.1-1
			l0,0l-5.7-4.5c-0.3-0.2-0.8-0.2-1,0.1l0,0c-3.3,4.2-8.2,6.6-13.6,6.7c-10.2,0-18.2-8.7-18.2-19.8S-622.1,666.1-611.9,666.1z"/>
		<path class="st1" d="M-584.2,655.6h7.2c0.4,0,0.7,0.3,0.7,0.7l0,0v56.8c0,0.4-0.3,0.7-0.7,0.7h-7.2c-0.4,0-0.7-0.3-0.7-0.7l0,0
			v-56.8C-584.9,656-584.6,655.6-584.2,655.6L-584.2,655.6z"/>
		<path class="st1" d="M-551.9,675.3c-9.5,0-19.1,6.7-19.1,19.6c0,11.3,8.2,19.8,19.1,19.8c10.9,0,19.2-8.5,19.2-19.8
			S-541,675.3-551.9,675.3z M-541.4,694.9c0,6.5-4.5,11.4-10.5,11.4s-10.4-4.9-10.4-11.4s4.5-11.2,10.4-11.2
			C-546,683.7-541.4,688.5-541.4,694.9L-541.4,694.9z"/>
		<path class="st1" d="M-494.1,676.1h-7.2c-0.4,0-0.7,0.3-0.7,0.7l0,0v19c0,7.4-5.1,10-9.5,10c-3.9,0-7.8-2.9-7.8-9.5v-19.6
			c0-0.4-0.3-0.7-0.7-0.7l0,0h-7.2c-0.4,0-0.7,0.3-0.7,0.7v20.5c0,11.2,5.1,17.4,14.3,17.4c3.4,0,8.8-1.9,10.8-6.2l0.7,0.1v4.4
			c0,0.4,0.3,0.7,0.7,0.7h7.2c0.4,0,0.7-0.3,0.7-0.7v-36.3C-493.4,676.4-493.7,676.1-494.1,676.1L-494.1,676.1z"/>
		<path class="st1" d="M-450.2,655.6h-7.2c-0.4,0-0.7,0.3-0.7,0.7l0,0v25.4l-0.4-0.7c-2.2-3.5-6.9-5.8-12-5.8
			c-8.8,0-17.6,6.8-17.6,19.6c0,11.2,7.6,19.7,17.7,19.7c3.8,0,9.2-1.5,11.9-5.9l0.4-0.7v5.1c0,0.4,0.3,0.7,0.7,0.7l0,0h7.2
			c0.4,0,0.7-0.3,0.7-0.7l0,0v-56.8C-449.5,656-449.8,655.6-450.2,655.6L-450.2,655.6z M-458.2,694.9c0.2,6.1-4.6,11.2-10.6,11.4
			h-0.1c-5.9,0-10.5-5-10.5-11.4c0-6.4,4.6-11.2,10.5-11.2C-462.9,683.8-458.1,688.8-458.2,694.9L-458.2,694.9z"/>
		<path class="st1" d="M-439.4,676.1h7.2c0.4,0,0.7,0.3,0.7,0.7l0,0v36.3c0,0.4-0.3,0.7-0.7,0.7l0,0h-7.2c-0.4,0-0.7-0.3-0.7-0.7
			v-36.3C-440.1,676.4-439.8,676.1-439.4,676.1z"/>
		<path class="st1" d="M-435.8,656.8c-3.1-0.1-5.6,2.4-5.7,5.4v0.1c0,3.1,2.6,5.6,5.7,5.6s5.6-2.4,5.6-5.5v-0.1
			c0.1-3-2.4-5.5-5.4-5.6C-435.7,656.8-435.8,656.8-435.8,656.8z"/>
		<path class="st1" d="M-402.1,675.3c-3.1,0-8.7,1.7-10.9,6.2l-0.7-0.1v-4.5c0-0.4-0.3-0.7-0.7-0.7l0,0h-7.2c-0.4,0-0.7,0.3-0.7,0.7
			l0,0v36.3c0,0.4,0.3,0.7,0.7,0.7l0,0h7.2c0.4,0,0.7-0.3,0.7-0.7v-19c0-7.4,5.1-10,9.5-10c3.9,0,7.8,2.9,7.8,9.4v19.6
			c0,0.4,0.3,0.7,0.7,0.7h7.2c0.4,0,0.7-0.3,0.7-0.7v-20.5C-387.8,681.5-392.9,675.3-402.1,675.3z"/>
		<path class="st1" d="M-345,676.1h-7.2c-0.4,0-0.7,0.3-0.7,0.7l0,0v5l-0.4-0.7c-2.2-3.5-6.9-5.8-12-5.8c-8.8,0-17.6,6.8-17.6,19.6
			c0,11.2,7.6,19.7,17.7,19.7c3.8,0,9.2-1.5,11.9-5.9l0.4-0.7v5c0,0.4,0.3,0.7,0.7,0.7h7.2c0.4,0,0.7-0.3,0.7-0.7l0,0v-36.3
			C-344.3,676.4-344.6,676.1-345,676.1z M-353,694.9c0.2,6.1-4.6,11.2-10.6,11.4h-0.1c-5.9,0-10.4-5-10.4-11.4
			c0-6.4,4.6-11.2,10.4-11.2C-357.7,683.8-352.9,688.8-353,694.9L-353,694.9z"/>
		<path class="st1" d="M-312.3,676.2c-1.6-0.7-3.4-1-5.1-1c-4.8,0-8.2,2.9-10,8.2l-0.6-0.1v-6.6c0-0.4-0.3-0.7-0.7-0.7l0,0h-7.2
			c-0.4,0-0.7,0.3-0.7,0.7l0,0V713c0,0.4,0.3,0.7,0.7,0.7h7.2c0.4,0,0.7-0.3,0.7-0.7l0,0v-12.4c0-14.8,5.9-17,9.4-17
			c1.5,0,3,0.3,4.3,0.9c0.2,0.1,0.4,0.1,0.6,0c0.2-0.1,0.3-0.3,0.4-0.5l1.4-7.1C-311.8,676.7-312,676.4-312.3,676.2z"/>
		<path class="st1" d="M-272.6,676.4c-0.1-0.2-0.4-0.3-0.6-0.3h-7.7c-0.3,0-0.6,0.2-0.7,0.5l-9.3,24.2l-9.4-24.2
			c-0.1-0.3-0.4-0.4-0.7-0.5h-7.9c-0.2,0-0.5,0.1-0.6,0.3c-0.1,0.2-0.2,0.4-0.1,0.7l14,34.4l-7.7,20.1c-0.2,0.4,0,0.8,0.4,0.9
			c0.1,0,0.2,0.1,0.3,0.1h7.5c0.3,0,0.5-0.2,0.6-0.5l21.9-55C-272.4,676.9-272.4,676.6-272.6,676.4z"/>
	</g>
</g>
<g>
	<rect x="128.2" y="40.9" class="st2" width="74.7" height="74.8"/>
	<rect x="212.6" y="40.9" class="st3" width="77.2" height="74.8"/>
	<rect x="299.4" y="40.9" class="st4" width="74.8" height="74.8"/>
	<rect x="128.2" y="126.1" class="st5" width="74.7" height="77.2"/>
	<rect x="212.6" y="126.1" class="st6" width="77.2" height="77.2"/>
	<rect x="299.4" y="126.1" class="st7" width="74.8" height="77.2"/>
	<rect x="128.2" y="213.3" class="st8" width="74.7" height="74.8"/>
	<rect x="212.6" y="213.3" class="st9" width="77.2" height="74.8"/>
	<rect x="299.4" y="213.3" class="st10" width="74.8" height="74.8"/>
</g>
<g>
	<polygon class="st0" points="160.1,102.6 172.9,102.6 172.9,64.8 187.1,64.8 187.1,54 145.4,54 145.4,64.8 160.1,64.8 	"/>
	<rect x="245" y="54" class="st0" width="12.8" height="48.6"/>
	<polygon class="st0" points="326.6,69.5 341.5,102.6 358.5,102.6 358.5,54 346.7,54 346.7,87.4 332,54 314.8,54 314.8,102.6 
		326.6,102.6 	"/>
	<polygon class="st0" points="187.8,139.9 172.3,139.9 157.6,157.8 157.6,139.9 144.9,139.9 144.9,188.6 157.6,188.6 157.6,168.9 
		173.3,188.6 189.4,188.6 167.2,162.8 	"/>
	<polygon class="st0" points="266.6,179.2 246,179.2 246,168.4 265.2,168.4 265.2,159.1 246,159.1 246,149.8 265.7,149.8 
		265.7,139.9 233.3,139.9 233.3,188.6 266.6,188.6 	"/>
	<path class="st0" d="M353.6,153.3c0-8.3-6.5-13.4-17.5-13.4h-19.3v48.6H329v-19.2h2.6c4.2,0,5.1,1.3,7.1,6.7l4.4,12.4h13.7
		l-6.5-16.5c-1.4-3.4-2.7-5.7-4.9-7.2C350.7,162.9,353.6,158.8,353.6,153.3z M340.8,154.3c0,4.8-4.6,5.8-8.4,5.8H329v-10.8h3.7
		C338.5,149.3,340.8,150.7,340.8,154.3z"/>
	<path class="st0" d="M180.1,263.5c-2.7,1.2-5.8,1.8-9.4,1.8c-9.2,0-14.7-5.6-14.7-15.1c0-9,6-15.1,14.9-15.1c3,0,6.4,0.6,9,1.8
		l1.6,0.7l0.5-10.4l-0.9-0.3c-3.6-1.1-8.1-1.7-11.9-1.7c-15.3,0-26.5,10.5-26.5,25c0,7.7,2.6,14.1,7.5,18.5c4.7,4.2,11.2,6.5,19,6.5
		c4.5,0,8.8-0.7,12.1-2l0.8-0.3l-0.6-10.1L180.1,263.5z"/>
	<path class="st0" d="M244,225.9l-18.5,48.6h12.7l4.2-11.8h17.9l4.1,11.8h13.3l-18.6-48.6H244z M257.3,253.4h-11.9l6-16.3
		L257.3,253.4z"/>
	<path class="st0" d="M332.7,225.9h-17.5v48.6h16.2c16.8,0,26.9-9.3,26.9-24.9C358.3,234.3,349.2,225.9,332.7,225.9z M345.2,249.5
		c0,10.1-5.3,15.6-15.2,15.6h-2v-30h3.1C340.2,235.2,345.2,240.5,345.2,249.5z"/>
</g>
<g>
	<g>
		<path class="st11" d="M105.3,373.4l16.1-39.8h3.9l16.1,39.8h-3.7l-4.3-11h-20.2l-4.4,11H105.3z M114.4,359.2h17.7l-8.9-22.3
			L114.4,359.2z"/>
		<path class="st11" d="M149.3,359.5c0,6.7,3.8,11.2,10.7,11.2c6.9,0,10.7-4.5,10.7-11.2v-26h3.6v26c0,8.8-5.4,14.5-14.3,14.5
			c-9,0-14.3-5.7-14.3-14.5v-26h3.6V359.5z"/>
		<path class="st11" d="M191.3,373.4v-36.6h-11.6v-3.2h26.9v3.2h-11.7v36.6H191.3z"/>
		<path class="st11" d="M208.3,353.5c0-10.7,5.7-20.5,17.5-20.5c12.1,0,17.5,9.6,17.5,20.5c0,10.8-5.7,20.5-17.5,20.5
			c-3,0-5.7-0.5-7.9-1.6C211.3,369.1,208.3,361.8,208.3,353.5z M225.7,370.7c9.7,0,13.7-8.7,13.7-17.2s-4-17.2-13.7-17.2
			c-9.6,0-13.7,8.9-13.7,17.2c0,4.2,1.1,8.5,3.3,11.8C217.6,368.4,221,370.7,225.7,370.7z"/>
		<path class="st11" d="M251.6,373.4v-39.8h9.2c12.7,0,20.6,6.5,20.6,19.4c0,14.3-9.5,20.5-22.8,20.5L251.6,373.4L251.6,373.4z
			 M255.2,370.2h3.3c11.7,0,19.1-4.9,19.1-17.3c0-10.6-6.2-16.1-16.7-16.1h-5.7L255.2,370.2L255.2,370.2z"/>
		<path class="st11" d="M289.2,373.4v-39.8h19.1v3.2h-15.5v14.6h14.6v3.1h-14.6v15.7h16.1v3.2H289.2z"/>
		<path class="st11" d="M315.3,368.6c2.6,1.6,5.7,2.1,8.1,2.1c5.2,0,9-2.4,9-7.9c0-3.8-2.9-6-6.7-8.1l-3.6-2
			c-3.7-2.1-6.4-4.6-6.4-9.2c0-7.2,6.1-10.5,12.3-10.5c2.4,0,4.7,0.4,7,1.3l-0.4,3.6c-2.1-1-4.4-1.5-6.7-1.5c-4.4,0-8.5,2-8.5,7
			c0,3.3,2,5,5.4,6.9l3.6,2c4.2,2.4,7.8,5.3,7.8,10.7c0,7.1-5.8,11.2-13,11.2c-3,0-5.7-0.5-8.5-1.7L315.3,368.6z"/>
		<path class="st11" d="M344.8,373.4v-39.8h3.6v18.2l18.3-18.2h4.6l-19.4,18.7l21.1,21.1H368l-19.6-20.1v20.1H344.8z"/>
		<path class="st11" d="M374.6,337.9c0-2.6,2.2-4.8,4.8-4.8c2.7,0,4.8,2.2,4.8,4.8c0,2.7-2.2,4.8-4.8,4.8c-0.6,0-1.3-0.1-1.9-0.4
			C375.9,341.6,374.6,339.9,374.6,337.9z M379.4,342c2.2,0,4-1.9,4-4.1s-1.8-4.1-4-4.1c-2.2,0-4,1.9-4,4.1c0,1.1,0.4,2.1,1.2,2.9
			C377.3,341.5,378.3,342,379.4,342z M377.6,340.6V335h1.7c1,0,1.9,0.4,1.9,1.5c0,0.7-0.7,1.2-1.4,1.4c0.4,0.1,0.7,0.3,0.9,0.7
			l0.9,2h-0.8l-0.8-1.8c-0.3-0.5-0.5-0.8-1.2-0.8h-0.5v2.5L377.6,340.6L377.6,340.6z M378.4,337.4h0.6c0.7,0,1.4-0.2,1.4-0.9
			c0-0.7-0.8-0.8-1.5-0.8h-0.6L378.4,337.4L378.4,337.4z"/>
	</g>
	<g>
		<path class="st11" d="M111.8,433.5V399H99.7v-5.4h30.8v5.4h-12.2v34.5H111.8z"/>
		<path class="st11" d="M137.7,433.5v-39.8h6.5v39.8H137.7z"/>
		<path class="st11" d="M155.6,433.5v-39.8h9.3l17.3,33.9v-33.9h5.9v39.8h-9.4l-17.3-33.9v33.9H155.6z"/>
		<path class="st11" d="M199.5,433.5v-39.8h6.5v17.6l16.1-17.6h7.9l-18,18.6l19.5,21.2h-8.3L206,414.1v19.5L199.5,433.5L199.5,433.5
			z"/>
		<path class="st11" d="M238.4,433.5v-39.8h22.9v4.8h-16.5v12.3h15.7v4.8h-15.7v13.2h17.1v4.8L238.4,433.5L238.4,433.5z"/>
		<path class="st11" d="M271.2,433.5v-39.8H283c7,0,14.3,1.9,14.3,10.3c0,5.3-4.1,8.9-9.1,9.6c2.8,0.4,4.7,2.5,5.8,5.4l5.9,14.5
			h-7.1l-4.9-12.4c-1.6-4-3-5.2-7.2-5.2h-3.2v17.6L271.2,433.5L271.2,433.5z M277.6,411.2h4c4.4,0,9.1-1.7,9.1-6.7c0-5.1-4-6-8.9-6
			h-4.3L277.6,411.2L277.6,411.2z"/>
		<path class="st11" d="M336.7,432.4c-2.8,1.3-6.6,1.7-9.7,1.7c-12.7,0-21.1-7.8-21.1-20.5c0-12.2,8.9-20.5,21.1-20.5
			c3,0,6.8,0.5,9.6,1.5l-0.4,5.3c-2.4-1.1-5.7-1.7-8.5-1.7c-9.3,0-15,6.6-15,15.5c0,9.2,5.4,15.5,14.9,15.5c3,0,6.1-0.5,8.8-1.7
			L336.7,432.4z"/>
		<path class="st11" d="M340,433.5l15.5-39.8h8.2l15.7,39.8h-6.8l-3.8-10.5h-18.5l-3.9,10.5H340z M351.9,418.3h15.2l-7.6-20
			L351.9,418.3z"/>
		<path class="st11" d="M386.1,433.5v-39.8h12.3c12.8,0,20.4,6.3,20.4,19.4c0,13.9-9,20.5-22.1,20.5L386.1,433.5L386.1,433.5z
			 M392.6,428.6h3.3c10.3,0,16-5.1,16-15.7c0-9.1-4.8-14.5-14.2-14.5h-5.1V428.6z"/>
		<path class="st11" d="M424.1,398c0-2.6,2.2-4.8,4.8-4.8c2.7,0,4.8,2.2,4.8,4.8c0,2.7-2.2,4.8-4.8,4.8c-0.6,0-1.3-0.1-1.9-0.4
			C425.3,401.7,424.1,400,424.1,398z M428.9,402.1c2.2,0,4-1.9,4-4.1s-1.8-4.1-4-4.1c-2.2,0-4,1.9-4,4.1c0,1.1,0.4,2.1,1.2,2.9
			C426.8,401.6,427.8,402.1,428.9,402.1z M427.1,400.7v-5.6h1.7c1,0,1.9,0.4,1.9,1.5c0,0.7-0.7,1.2-1.4,1.4c0.4,0.1,0.7,0.3,0.9,0.7
			l0.9,2h-0.8l-0.8-1.8c-0.3-0.5-0.5-0.8-1.2-0.8h-0.5v2.5L427.1,400.7L427.1,400.7z M427.8,397.5h0.6c0.7,0,1.4-0.2,1.4-0.9
			c0-0.7-0.8-0.8-1.5-0.8h-0.6L427.8,397.5L427.8,397.5z"/>
	</g>
</g>
</svg>
