<?xml version="1.0" encoding="utf-8"?>
<!-- Generator: Adobe Illustrator 25.3.0, SVG Export Plug-In . SVG Version: 6.00 Build 0)  -->
<svg version="1.1" id="Calque_1" xmlns="http://www.w3.org/2000/svg" xmlns:xlink="http://www.w3.org/1999/xlink" x="0px" y="0px"
	 viewBox="0 0 500 500" style="enable-background:new 0 0 500 500;" xml:space="preserve">
<style type="text/css">
	.st0{fill:#FFFFFF;}
	.st1{fill:#FF0099;}
</style>
<path class="st0" d="M80,0h340c44.2,0,80,35.8,80,80v340c0,44.2-35.8,80-80,80H80c-44.2,0-80-35.8-80-80V80C0,35.8,35.8,0,80,0z"/>
<g>
	<path class="st1" d="M419.6,306.4c0,61.6-49.9,111.5-111.5,111.5H191.9c-61.6,0-111.5-49.9-111.5-111.5v-39.8H13v45.7
		c0,95.3,77.3,172.6,172.6,172.6h128.8c95.3,0,172.6-77.3,172.6-172.6v-45.7h-67.4L419.6,306.4L419.6,306.4z"/>
	<path class="st1" d="M80.4,192.4c0-61.6,49.9-111.5,111.5-111.5h116.2c61.6,0,111.5,49.9,111.5,111.5v41H487v-46.9
		c0-95.3-77.3-172.6-172.6-172.6H185.6C90.3,13.9,13,91.2,13,186.5v46.9h67.4V192.4z"/>
	<path class="st1" d="M317,115.5v186.6c0,8.9-7.2,16.1-16.1,16.1c-8.9,0-16.1-7.2-16.1-16.1v-68.7h-69.6v68.7
		c0,8.9-7.2,16.1-16.1,16.1l0,0c-8.9,0-16.1-7.2-16.1-16.1V115.5c-39.1,6.5-68.9,40.4-68.9,81.3V302c0,45.5,36.9,82.4,82.4,82.4h5.8
		c11.2,0,21.8-2.2,31.5-6.3c5.7-2.4,11.1-5.4,16.1-8.9c5,3.5,10.4,6.5,16.1,8.9c9.7,4,20.4,6.3,31.5,6.3h5.8
		c45.5,0,82.4-36.9,82.4-82.4V196.8C385.9,155.9,356.1,122,317,115.5z"/>
</g>
</svg>
